<?xml version="1.0" encoding="UTF-8" standalone="no"?>
<!-- Generator: Adobe Illustrator 16.0.0, SVG Export Plug-In . SVG Version: 6.00 Build 0)  -->

<svg
   xmlns:dc="http://purl.org/dc/elements/1.1/"
   xmlns:cc="http://creativecommons.org/ns#"
   xmlns:rdf="http://www.w3.org/1999/02/22-rdf-syntax-ns#"
   xmlns:svg="http://www.w3.org/2000/svg"
   xmlns="http://www.w3.org/2000/svg"
   xmlns:sodipodi="http://sodipodi.sourceforge.net/DTD/sodipodi-0.dtd"
   xmlns:inkscape="http://www.inkscape.org/namespaces/inkscape"
   version="1.1"
   id="Capa_1"
   x="0px"
   y="0px"
   width="430.924px"
   height="430.924px"
   viewBox="0 0 430.924 430.924"
   style="enable-background:new 0 0 430.924 430.924;"
   xml:space="preserve"
   inkscape:version="0.91 r13725"
   sodipodi:docname="reset.svg"><metadata
     id="metadata53"><rdf:RDF><cc:Work
         rdf:about=""><dc:format>image/svg+xml</dc:format><dc:type
           rdf:resource="http://purl.org/dc/dcmitype/StillImage" /></cc:Work></rdf:RDF></metadata><defs
     id="defs51" /><sodipodi:namedview
     pagecolor="#ffffff"
     bordercolor="#666666"
     borderopacity="1"
     objecttolerance="10"
     gridtolerance="10"
     guidetolerance="10"
     inkscape:pageopacity="0"
     inkscape:pageshadow="2"
     inkscape:window-width="767"
     inkscape:window-height="480"
     id="namedview49"
     showgrid="false"
     inkscape:zoom="0.54766036"
     inkscape:cx="215.46201"
     inkscape:cy="215.46201"
     inkscape:window-x="0"
     inkscape:window-y="31"
     inkscape:window-maximized="0"
     inkscape:current-layer="Capa_1" /><g
     id="g3"
     style="fill:#ececec"><g
       id="g5"
       style="fill:#ececec"><path
         d="M296.924,403.243c-22.656,10.875-47.5,17.813-73.734,19.813v-64.813c14.609-1.625,28.672-4.906,41.609-10.594    L296.924,403.243z"
         id="path7"
         style="fill:#ececec" /><path
         d="M64.814,199.868H0.001c8.219-107.219,97.906-192,207.188-192c64.297,0,124.735,30.094,163.797,79.969l59.812-34.563    l0.125,197.844l-171.406-98.813l55.094-31.875c-27.062-30.313-65.999-48.563-107.421-48.563    C133.251,71.868,72.876,128.055,64.814,199.868z"
         id="path9"
         style="fill:#ececec" /><path
         d="M322.674,301.024l56,32.312c-14.531,21.156-32.875,39.47-54,54.031l-32.314-56    C303.924,322.805,314.111,312.586,322.674,301.024z"
         id="path11"
         style="fill:#ececec" /><path
         d="M191.189,358.243v64.813c-26.25-2-51.094-8.938-73.719-19.813l32.094-55.594    C162.533,353.336,176.595,356.618,191.189,358.243z"
         id="path13"
         style="fill:#ececec" /><path
         d="M122.033,331.368l-32.313,56c-21.156-14.562-39.5-32.875-54.031-54.031l56-32.312    C100.251,312.586,110.439,322.805,122.033,331.368z"
         id="path15"
         style="fill:#ececec" /><path
         d="M75.376,273.461l-55.563,32.094C8.938,282.93,2,258.118,0,231.868h64.813C66.439,246.461,69.72,260.524,75.376,273.461z"
         id="path17"
         style="fill:#ececec" /></g></g><g
     id="g19" /><g
     id="g21" /><g
     id="g23" /><g
     id="g25" /><g
     id="g27" /><g
     id="g29" /><g
     id="g31" /><g
     id="g33" /><g
     id="g35" /><g
     id="g37" /><g
     id="g39" /><g
     id="g41" /><g
     id="g43" /><g
     id="g45" /><g
     id="g47" /></svg>